<svg xmlns="http://www.w3.org/2000/svg" width="60" height="60" viewBox="0 0 60 60" fill="none"><g clip-path="url(#clip0_743_2456)"><path d="M55.8809 4.6293L54.8323 7.05637L53 6.62852L54.1807 3.89559C54.3751 3.4477 54.4365 2.97543 54.3832 2.52285C54.3114 1.90246 54.0243 1.31922 53.5648 0.882812C53.8704 0.898984 54.1805 0.969648 54.4781 1.09809C55.3924 1.49277 55.9757 2.33418 56.0834 3.25668C56.1355 3.70914 56.0742 4.18023 55.8809 4.6293Z" fill="white"></path><path d="M38.0248 49.4554L32.4207 54.7216C31.7239 55.3779 30.5804 54.8837 30.5793 53.9277L30.5781 52.393L35.0642 48.1777L38.0248 49.4554Z" fill="white"></path><path d="M28.198 9.59584C27.6943 9.59584 27.286 10.0041 27.286 10.5078C27.286 11.0116 27.6943 11.4197 28.198 11.4197H32.3053C33.1871 11.4197 33.9045 10.7023 33.9045 9.82061V6.66029C33.9045 5.77846 33.1871 5.06104 32.3053 5.06104H13.443C12.5612 5.06104 11.8438 5.77846 11.8438 6.66029V9.82072C11.8438 10.7024 12.5612 11.4199 13.443 11.4199H23.9115C24.4152 11.4199 24.8234 11.0116 24.8234 10.5079C24.8234 10.0041 24.4152 9.59596 23.9115 9.59596H13.6678V6.88506H32.0805V9.59572L28.198 9.59584Z" fill="white"></path><path d="M7.76562 16.1019C7.76562 16.6057 8.17391 17.0138 8.67758 17.0138H37.2598C37.7636 17.0138 38.1718 16.6056 38.1718 16.1019C38.1718 15.5981 37.7635 15.1899 37.2598 15.1899H8.67758C8.17391 15.1898 7.76562 15.5981 7.76562 16.1019Z" fill="white"></path><path d="M8.67758 22.7521H37.2598C37.7636 22.7521 38.1718 22.3438 38.1718 21.8402C38.1718 21.3364 37.7635 20.9282 37.2598 20.9282H8.67758C8.17391 20.9282 7.76562 21.3365 7.76562 21.8402C7.76562 22.344 8.17391 22.7521 8.67758 22.7521Z" fill="white"></path><path d="M31.6221 27.5785C31.6221 27.0747 31.2138 26.6665 30.7101 26.6665H8.67758C8.17391 26.6665 7.76562 27.0748 7.76562 27.5785C7.76562 28.0821 8.17391 28.4904 8.67758 28.4904H30.71C31.2137 28.4904 31.6221 28.0821 31.6221 27.5785Z" fill="white"></path><path d="M20.069 34.2287C20.5727 34.2287 20.981 33.8204 20.981 33.3167C20.981 32.813 20.5727 32.4048 20.069 32.4048H8.67758C8.17391 32.4048 7.76562 32.8131 7.76562 33.3167C7.76562 33.8205 8.17391 34.2287 8.67758 34.2287H20.069Z" fill="white"></path><path d="M7.58428 51.962C8.06896 52.1009 8.57322 51.8193 8.71127 51.3348C8.71713 51.3145 9.31537 49.3084 11.6444 49.3084C12.794 49.3084 13.3396 49.76 14.0949 50.3852C14.9626 51.1036 16.0428 51.9975 18.1296 51.9975C20.7318 51.9975 22.1305 49.2463 22.1889 49.1292C22.4127 48.6796 22.2298 48.135 21.781 47.9096C21.3321 47.6842 20.7846 47.8657 20.5574 48.3136C20.5479 48.3322 19.5973 50.1735 18.1296 50.1735C16.6997 50.1735 16.0634 49.6468 15.2578 48.98C14.4108 48.2789 13.4509 47.4844 11.6442 47.4844C8.69158 47.4844 7.28709 49.6761 6.95697 50.835C6.81904 51.3195 7.09994 51.8241 7.58428 51.962Z" fill="white"></path><path d="M59.5199 9.36422C59.4297 9.1391 59.2535 8.95934 59.0304 8.8643L56.9113 7.96266C57.0891 7.51336 56.8656 6.98004 56.4257 6.78996L56.0032 6.6075L56.6888 5.01984C57.4632 3.22301 56.6066 1.0691 54.8117 0.293672C53.018 -0.481172 50.8621 0.375586 50.087 2.16867L49.3806 3.80402C48.5725 3.66316 47.7551 4.10719 47.4307 4.85836L45.531 9.25746V4.58871C45.531 2.0584 43.4725 0 40.9423 0H5.00148C2.47199 0 0.414062 2.05793 0.414062 4.58742V55.4126C0.414062 57.9421 2.47199 60 5.00148 60H40.9436C43.4731 60 45.5309 57.9421 45.5309 55.4126V42.6441C45.5309 42.1403 45.1226 41.7321 44.6189 41.7321C44.1153 41.7321 43.707 42.1404 43.707 42.6441V55.4126C43.707 56.9364 42.4674 58.176 40.9437 58.176H5.00148C3.47769 58.176 2.23809 56.9364 2.23809 55.4126V4.58742C2.23809 3.06363 3.47781 1.82402 5.00148 1.82402H40.9423C42.4667 1.82402 43.707 3.06422 43.707 4.58871V13.4811L29.7282 45.8568C29.6795 45.9695 29.6525 46.0959 29.6527 46.2189L29.6634 53.9012C29.6648 55.6154 31.7846 56.5385 33.0393 55.3588L38.6371 50.0986C38.7144 50.0268 38.7793 49.9372 38.8265 49.8431C38.8314 49.8334 38.8363 49.8238 38.8409 49.8138C38.8438 49.8076 38.8472 49.8016 38.8499 49.7953L56.1894 9.63773L57.4738 10.1842L50.6905 25.9579C50.4916 26.4205 50.7053 26.957 51.1681 27.156C51.2855 27.2066 51.4077 27.2304 51.5278 27.2304C51.8813 27.2304 52.2176 27.0237 52.3661 26.6784L59.511 10.0638C59.6069 9.84094 59.61 9.58922 59.5199 9.36422ZM53.4911 1.82719C54.7007 1.8893 55.4891 3.19547 55.0139 4.29715L54.3287 5.8841L51.0756 4.47973L51.7614 2.89219C52.0551 2.21273 52.7488 1.78617 53.4911 1.82719ZM49.0928 5.61047L54.8655 8.10293L47.5307 25.0898L41.7571 22.5968L49.0928 5.61047ZM37.5369 48.2352L31.7644 45.7424L41.0342 24.2715L46.8078 26.7646L37.5369 48.2352ZM31.79 54.0296C31.6776 54.1351 31.4873 54.0543 31.4873 53.8995L31.4787 47.6059L36.3757 49.7204L31.79 54.0296Z" fill="white"></path></g><defs><clipPath id="clip0_743_2456"><rect width="60" height="60" fill="white"></rect></clipPath></defs></svg>