<svg xmlns="http://www.w3.org/2000/svg" width="60" height="60" viewBox="0 0 60 60" fill="none"><mask id="mask0_743_2262" style="mask-type:luminance" maskUnits="userSpaceOnUse" x="0" y="0" width="60" height="60"><path d="M0 3.8147e-06H60V60H0V3.8147e-06Z" fill="white"></path></mask><g mask="url(#mask0_743_2262)"><path d="M38.0777 18.9045C38.0777 23.3658 34.4612 26.9824 29.9997 26.9824C25.5384 26.9824 21.9219 23.3658 21.9219 18.9045C21.9219 14.4431 25.5384 10.8265 29.9997 10.8265C34.4612 10.8265 38.0777 14.4431 38.0777 18.9045Z" stroke="white" stroke-width="2.2" stroke-miterlimit="10" stroke-linecap="round" stroke-linejoin="round"></path><path d="M43.5762 8.41817C40.3477 4.24629 35.2782 1.75372 30.0024 1.75372C24.7266 1.75372 19.6571 4.24629 16.4286 8.41817C12.7875 13.1244 12.136 18.7951 14.0496 24.3369C15.8895 29.6643 19.7965 34.1068 22.9911 38.6854C25.2762 41.9607 27.5614 45.2361 29.8465 48.5127C29.8981 48.5865 29.9508 48.6615 30.0024 48.7354C30.0539 48.6615 30.1067 48.5865 30.1582 48.5127C32.4434 45.2361 34.7286 41.9607 37.0137 38.6854C40.2082 34.1068 44.1153 29.6643 45.9551 24.3369C47.8688 18.7951 47.2172 13.1244 43.5762 8.41817Z" stroke="white" stroke-width="2.2" stroke-miterlimit="10" stroke-linecap="round" stroke-linejoin="round"></path><path d="M19.248 45.1398L14.25 48.2969L30 58.2461L45.75 48.2969L40.7519 45.1398" stroke="white" stroke-width="2.2" stroke-miterlimit="10" stroke-linecap="round" stroke-linejoin="round"></path></g></svg>