<svg xmlns="http://www.w3.org/2000/svg" width="60" height="60" viewBox="0 0 60 60" fill="none"><g clip-path="url(#clip0_743_2291)"><path d="M57 0H38C36.2998 0 35 1.2998 35 3V12.2002C35 12.5 34.8999 12.7002 34.7002 12.8999L32 15.6001V18H57C58.7002 18 60 16.7002 60 15V3C60 1.2998 58.7002 0 57 0ZM58 15C58 15.6001 57.6001 16 57 16H34.3999L36.1001 14.2998C36.7002 13.7002 37 13 37 12.2002V3C37 2.3999 37.3999 2 38 2H57C57.6001 2 58 2.3999 58 3V15Z" fill="white"></path><path d="M55.8999 41.5L50 38.7998C51.8999 37.2002 53 34.7998 53 32.2998V20H41C38.2002 20 36 22.2002 36 25V32.2998C36 34.7998 37.1001 37.2002 39 38.7998L34 41.1001V35.2998C34 32.2998 32.1001 29.6001 29.2002 28.7002L22 26.2998V24H25.1001C27.8999 24 30.1001 21.7998 30.1001 19C30.1001 18.7002 30.1001 18.2998 30 18L28.7002 11.7002C27.5 5.79977 21.7002 2.10006 15.7998 3.29977C11.6001 4.20016 8.2998 7.49996 7.3999 11.7002L6 18C5.3999 20.7002 7.2002 23.3999 9.8999 23.8999C10.2002 24 10.6001 24 10.8999 24H14V26.2998L6.7998 28.7002C3.8999 29.7002 2 32.2998 2 35.2998V48H0V60H27V58H2V50H29V60H60V47.8999C60 45.1001 58.3999 42.6001 55.8999 41.5ZM38 32.2998V25C38 23.2998 39.2998 22 41 22H51V32.2998C51 35.8999 48.1001 38.7998 44.5 38.7998C40.8999 38.7998 38 35.8999 38 32.2998ZM14.7002 19.6001L13.5 18.7998C13.2002 18.6001 13.1001 18.2998 13.1001 18V12.3999C14.3999 11.7002 16 11.7998 17.2998 12.5C19 13.5 21.2002 13.7002 23 12.8999H23.1001V18C23.1001 18.2998 22.8999 18.6001 22.7002 18.7998L21.5 19.6001C20.7002 20.2002 20.2002 21.1001 20.2002 22.1001V26H16.2002V22.1001C16 21.1001 15.5 20.1001 14.7002 19.6001ZM17 28V29.5L14.1001 31.7002L11.6001 29.2002L15.2002 28H17ZM19 28H20.7998L24.3999 29.2002L21.8999 31.7002L19 29.5V28ZM27.3999 20.8999C26.7998 21.6001 26 22 25.1001 22H22C22 21.7002 22.2002 21.3999 22.3999 21.2002L23.6001 20.3999C24.3999 19.7998 24.8999 18.8999 24.8999 17.8999V11.8999L26.3999 11.2998C26.5 11.5 26.5 11.7998 26.6001 12L27.8999 18.2998C28.2002 19.2998 28 20.2002 27.3999 20.8999ZM18 4.99996C21.2002 4.99996 24.1001 6.70016 25.7002 9.49996L22.1001 11C20.7998 11.5 19.3999 11.3999 18.2002 10.7002C16.2002 9.49996 13.7998 9.49996 11.7998 10.6001L9.2998 12V11.8999C10.2002 7.89987 13.7998 4.99996 18 4.99996ZM8.6001 20.8999C8 20.2002 7.7998 19.2998 8 18.3999L8.7998 14.7002L11 13.3999V17.8999C11 18.8999 11.5 19.7998 12.2998 20.3999L13.5 21.2002C13.7998 21.3999 13.8999 21.7002 13.8999 22H10.7998C10 22 9.2002 21.6001 8.6001 20.8999ZM4 35.2998C4 33.1001 5.3999 31.2002 7.3999 30.6001L9.5 29.8999L13.8999 34.2998L17 32V48H11V36H9V48H4V35.2998ZM27 48V40H25V48H19V32L22.1001 34.2998L26.5 29.8999L28.6001 30.6001C30.6001 31.2998 32 33.2002 32 35.2998V42.1001C30.1001 43.3999 29 45.5 29 47.7998V48H27ZM58 58H31V47.8999C31 45.8999 32.1001 44.2002 33.8999 43.2998L41 40.1001C43.2002 41.1001 45.7002 41.1001 47.7998 40.1001L54.8999 43.2998C56.7002 44.1001 57.7998 45.8999 57.7998 47.8999V58H58Z" fill="white"></path><path d="M13 53H23V55H13V53Z" fill="white"></path><path d="M39 4H56V6H39V4Z" fill="white"></path><path d="M39 8H56V10H39V8Z" fill="white"></path><path d="M39 12H52V14H39V12Z" fill="white"></path><path d="M21 36H27V38H21V36Z" fill="white"></path></g><defs><clipPath id="clip0_743_2291"><rect width="60" height="60" fill="white"></rect></clipPath></defs></svg>